<svg version="1" xmlns="http://www.w3.org/2000/svg" width="933.333" height="933.333" viewBox="0 0 700 700"><path d="M131 1.5C99.1 6 70.2 20.1 47.1 42.4 24 64.8 10.1 89.9 2.7 123l-2.1 9.5-.4 211C0 496 .2 557.3 1 564.5c4 34.6 19 65.7 43.9 90.6 22.1 22 46.3 35.1 78.1 42.1l10.5 2.3h433l10.5-2.3c31.5-7 56-20.1 78.1-42.2 21.8-21.7 34.8-45.7 42.1-77.5l2.2-10 .4-211c.2-152.5 0-213.8-.8-221-7.4-65.3-55-117.7-120-132.4L567.5.6 354 .4C179.8.2 138.8.4 131 1.5zm219 162.4v40l-5.2.5c-2.9.3-8.4.8-12.3 1.2-3.8.3-12 1.9-18.2 3.4-55.5 14-97.5 59.5-107.9 117-2.1 11.6-2.1 35.8 0 47.7 6.5 36.6 25.6 68.7 54.1 90.7 10.6 8.2 16 11.5 28.5 17.5 37.8 18 84.2 18 122 0 12.5-6 17.9-9.3 28.5-17.5 28.5-22.1 48.2-55.2 54-90.9.8-4.9 1.5-10.9 1.5-13.1 0-2.3.3-5.6.6-7.3l.6-3.1h80.1l-.7 10.7c-1.5 23.7-6.3 47.1-13.7 67C536.2 497.2 478 550 406.5 568.5c-20.5 5.3-33.2 6.8-56.5 6.8-23.3 0-36-1.5-56.5-6.8-79.1-20.5-141.9-83.3-162-161.9-5.4-21.1-6.9-33.4-6.9-56.6 0-23.3 1.4-35.2 7-56.9 18.2-71 71.5-129.7 141.4-155.4 21.1-7.8 48.5-13 71.3-13.6l5.7-.1v39.9z"/></svg>