<svg version="1.0" xmlns="http://www.w3.org/2000/svg" width="933.333" height="933.333" viewBox="0 0 700 700"><path d="M332.5 124.7c-80.8 7-150.6 54.7-185.5 126.8-16 33-22.4 61.3-22.4 98.5s6.4 65.5 22.4 98.5c22 45.4 58.7 82.3 103.5 104 33.9 16.4 62.1 22.9 99.5 22.9 37.2 0 66-6.5 98.5-22.3 45.6-22.3 82.2-58.7 104-103.6 14.1-28.9 21.2-56 23.1-88.3l.7-11.2h-81l-.6 11.2c-1.9 33.5-17 66.2-42.1 91.3-20.4 20.3-43.4 33.1-71.6 39.7-12.5 2.9-40.4 3.6-54.2 1.4-30-5-57.5-19.2-79.3-41.1-20.8-20.8-33.8-44.6-40.1-73.6-2.7-12.1-2.7-45.7 0-57.8 9.7-44.3 38.1-81.3 77.9-101.3 16.9-8.4 41.5-14.8 57.4-14.8h7.3v-81l-6.7.2c-3.8.1-8.6.3-10.8.5z"/></svg>